<?xml version="1.0" encoding="UTF-8" standalone="no"?>
<!DOCTYPE svg PUBLIC "-//W3C//DTD SVG 1.1//EN" "http://www.w3.org/Graphics/SVG/1.1/DTD/svg11.dtd">
<svg version="1.1" xmlns="http://www.w3.org/2000/svg" xmlns:xlink="http://www.w3.org/1999/xlink" preserveAspectRatio="xMidYMid meet" viewBox="0 0 1200 700" width="1200" height="700"><defs><path d="M-17.75 577.81L406.92 242.39L-17.75 577.81Z" id="f1m8XzHJ8Y"></path><path d="M1048.08 710.14C1177.99 531.39 1185.01 352.43 1069.13 173.25C953.25 -5.93 763.78 -6.51 500.73 171.51C461.67 195.91 266.38 317.86 -85.13 537.38L-88.73 710.14C593.35 710.14 972.29 710.14 1048.08 710.14Z" id="bbOkArQIP"></path><path d="M1048.08 710.14C1177.99 531.39 1185.01 352.43 1069.13 173.25C953.25 -5.93 763.78 -6.51 500.73 171.51C461.67 195.91 266.38 317.86 -85.13 537.38L-88.73 710.14C593.35 710.14 972.29 710.14 1048.08 710.14Z" id="b4aY3JiyAg"></path><path d="M779.89 74.99C763.58 74.99 750.35 61.75 750.35 45.45C750.35 29.14 763.58 15.9 779.89 15.9C796.19 15.9 809.43 29.14 809.43 45.45C809.43 61.75 796.19 74.99 779.89 74.99Z" id="d3waUsOHd"></path><path d="M779.74 89.76C755.28 89.76 735.43 69.9 735.43 45.45C735.43 20.99 755.28 1.13 779.74 1.13C804.2 1.13 824.05 20.99 824.05 45.45C824.05 69.9 804.2 89.76 779.74 89.76Z" id="dRmUIMZQb"></path><path d="M780.39 106.38C746.76 106.38 719.46 79.07 719.46 45.45C719.46 11.82 746.76 -15.48 780.39 -15.48C814.01 -15.48 841.32 11.82 841.32 45.45C841.32 79.07 814.01 106.38 780.39 106.38Z" id="aaTOpGzmE"></path><path d="M194.83 722.28C244.4 656.98 271.61 621.31 276.45 615.27C283.7 606.2 345.37 497.37 330.86 431.69C316.35 366.01 252.87 267.01 136.78 267.01C59.39 267.01 2.71 311.75 -33.25 401.23C-33.25 422.96 -33.25 531.58 -33.25 727.11C103.59 724.21 179.62 722.6 194.83 722.28Z" id="bFhVNbyQr"></path></defs><g><g><use xlink:href="#f1m8XzHJ8Y" opacity="1" fill="#000000" fill-opacity="0"></use><g><use xlink:href="#f1m8XzHJ8Y" opacity="1" fill-opacity="0" stroke="#f8f2f2" stroke-width="1" stroke-opacity="1"></use></g></g><g><use xlink:href="#bbOkArQIP" opacity="1" fill="#0090ff" fill-opacity="1"></use><g><use xlink:href="#bbOkArQIP" opacity="1" fill-opacity="0" stroke="#000000" stroke-width="1" stroke-opacity="0"></use></g></g><g><use xlink:href="#b4aY3JiyAg" opacity="1" fill="#000000" fill-opacity="0"></use><g><use xlink:href="#b4aY3JiyAg" opacity="1" fill-opacity="0" stroke="#ffffff" stroke-width="1" stroke-opacity="1"></use></g></g><g><use xlink:href="#d3waUsOHd" opacity="1" fill="#000000" fill-opacity="0"></use><g><use xlink:href="#d3waUsOHd" opacity="1" fill-opacity="0" stroke="#cfcfcf" stroke-width="4" stroke-opacity="1"></use></g></g><g><use xlink:href="#dRmUIMZQb" opacity="1" fill="#000000" fill-opacity="0"></use><g><use xlink:href="#dRmUIMZQb" opacity="1" fill-opacity="0" stroke="#cfcfcf" stroke-width="4" stroke-opacity="1"></use></g></g><g><use xlink:href="#aaTOpGzmE" opacity="1" fill="#000000" fill-opacity="0"></use><g><use xlink:href="#aaTOpGzmE" opacity="1" fill-opacity="0" stroke="#cfcfcf" stroke-width="4" stroke-opacity="1"></use></g></g><g><use xlink:href="#bFhVNbyQr" opacity="1" fill="#000000" fill-opacity="0"></use><g><use xlink:href="#bFhVNbyQr" opacity="1" fill-opacity="0" stroke="#cfcfcf" stroke-width="4" stroke-opacity="1"></use></g></g></g></svg>